<?xml version="1.0" standalone="no"?>
<!DOCTYPE svg PUBLIC "-//W3C//DTD SVG 20010904//EN"
 "http://www.w3.org/TR/2001/REC-SVG-20010904/DTD/svg10.dtd">
<svg version="1.0" xmlns="http://www.w3.org/2000/svg"
 width="760.000000pt" height="760.000000pt" viewBox="0 0 760.000000 760.000000"
 preserveAspectRatio="xMidYMid meet">
<metadata>
Created by potrace 1.14, written by Peter Selinger 2001-2017
</metadata>
<g transform="translate(0.000000,760.000000) scale(0.100000,-0.100000)"
fill="#000000" stroke="none">
<path d="M0 3800 l0 -3800 3800 0 3800 0 0 3800 0 3800 -3800 0 -3800 0 0
-3800z m2471 1568 c0 -1031 1 -1092 17 -1068 53 77 204 249 298 340 353 342
665 480 1084 480 392 0 731 -136 1012 -405 362 -348 567 -840 567 -1365 1
-262 -44 -484 -144 -715 -106 -244 -231 -423 -428 -611 -232 -222 -508 -363
-812 -415 -101 -18 -147 -20 -295 -16 -264 8 -437 56 -673 187 -204 112 -447
324 -567 493 l-55 78 -3 -351 -2 -350 -65 0 -65 0 0 2405 0 2405 65 0 65 0 1
-1092z"/>
<path d="M3675 4975 c-117 -16 -200 -38 -305 -82 -333 -137 -635 -424 -854
-811 l-47 -83 3 -672 3 -672 24 -70 c87 -261 311 -499 636 -674 332 -179 634
-231 955 -166 538 110 1016 591 1174 1184 84 313 72 664 -34 991 -121 373
-380 707 -690 891 -250 149 -557 207 -865 164z"/>
</g>
</svg>
